<svg width="29" height="25" viewBox="0 0 29 25" fill="none" xmlns="http://www.w3.org/2000/svg">
<path d="M14.4996 24.9993L12.5421 23.2012C5.58989 16.8389 0.999579 12.6431 0.999579 7.49289C0.970261 6.52574 1.14006 5.56263 1.49909 4.65987C1.85812 3.7571 2.39918 2.93275 3.09059 2.2351C3.78199 1.53745 4.60989 0.980466 5.52589 0.596689C6.44189 0.212913 7.42761 0.0100764 8.42541 0C9.59127 0.0141513 10.7397 0.276527 11.7894 0.768549C12.8392 1.26057 13.7646 1.97026 14.5002 2.84736C15.2359 1.97029 16.1614 1.26064 17.2111 0.768626C18.2608 0.276607 19.4092 0.0141945 20.5751 0C21.5729 0.0100745 22.5587 0.21295 23.4748 0.596766C24.3908 0.980582 25.2187 1.53761 25.9101 2.23533C26.6016 2.93305 27.1426 3.75741 27.5016 4.66025C27.8605 5.56309 28.0303 6.52631 28.0009 7.4935C28.0009 12.6431 23.4112 16.8414 16.4583 23.2157L14.4996 24.9993Z" fill="#2B2B2B"/>
</svg>
